<?xml version="1.0" encoding="iso-8859-1"?>
<!-- Generator: Adobe Illustrator 15.0.2, SVG Export Plug-In . SVG Version: 6.00 Build 0)  -->
<!DOCTYPE svg PUBLIC "-//W3C//DTD SVG 1.1//EN" "http://www.w3.org/Graphics/SVG/1.1/DTD/svg11.dtd">
<svg version="1.1" id="&#x30EC;&#x30A4;&#x30E4;&#x30FC;_1"
	 xmlns="http://www.w3.org/2000/svg" xmlns:xlink="http://www.w3.org/1999/xlink" x="0px" y="0px" width="379px" height="270px"
	 viewBox="0 0 379 270" style="enable-background:new 0 0 379 270;" xml:space="preserve">
<path style="fill:none;stroke:#000000;stroke-miterlimit:10;" d="M83.499,211.459h3.15 M359.448,211.459h-3.149 M76.298,211.459"/>
<g>
	<path d="M61.698,206.885c0.562,1.037,0.844,2.458,0.844,4.263c0,1.711-0.255,3.126-0.765,4.245
		c-0.738,1.605-1.945,2.408-3.621,2.408c-1.512,0-2.637-0.656-3.375-1.969c-0.615-1.096-0.923-2.566-0.923-4.412
		c0-1.43,0.185-2.657,0.554-3.683c0.691-1.91,1.942-2.865,3.753-2.865C59.793,204.872,60.971,205.543,61.698,206.885z
		 M60.105,215.27c0.487-0.727,0.731-2.08,0.731-4.061c0-1.43-0.176-2.606-0.528-3.528c-0.352-0.924-1.036-1.385-2.051-1.385
		c-0.933,0-1.615,0.438-2.047,1.314c-0.431,0.876-0.647,2.166-0.647,3.871c0,1.283,0.138,2.314,0.414,3.094
		c0.423,1.189,1.145,1.784,2.166,1.784C58.964,216.359,59.619,215.996,60.105,215.27z"/>
</g>
<path style="fill:none;stroke:#000000;stroke-miterlimit:10;" d="M76.298,215.459 M83.499,186.559h3.15 M359.448,186.559h-3.149
	 M76.298,186.559"/>
<g>
	<path d="M41.667,183.647v-1.213c1.143-0.111,1.939-0.297,2.391-0.559c0.451-0.26,0.788-0.877,1.011-1.85h1.248v12.533h-1.688
		v-8.912H41.667z"/>
	<path d="M58.357,181.986c0.562,1.037,0.844,2.458,0.844,4.263c0,1.711-0.255,3.126-0.765,4.245
		c-0.738,1.605-1.945,2.408-3.621,2.408c-1.512,0-2.637-0.656-3.375-1.969c-0.615-1.096-0.923-2.566-0.923-4.412
		c0-1.43,0.185-2.657,0.554-3.683c0.691-1.91,1.942-2.865,3.753-2.865C56.453,179.974,57.63,180.645,58.357,181.986z
		 M56.765,190.371c0.487-0.727,0.731-2.08,0.731-4.061c0-1.43-0.176-2.606-0.528-3.528c-0.352-0.924-1.036-1.385-2.051-1.385
		c-0.933,0-1.615,0.438-2.047,1.314c-0.431,0.876-0.647,2.166-0.647,3.871c0,1.283,0.138,2.314,0.414,3.094
		c0.423,1.189,1.145,1.784,2.166,1.784C55.623,191.461,56.278,191.098,56.765,190.371z"/>
	<path d="M68.368,181.986c0.562,1.037,0.844,2.458,0.844,4.263c0,1.711-0.255,3.126-0.765,4.245
		c-0.738,1.605-1.945,2.408-3.621,2.408c-1.512,0-2.637-0.656-3.375-1.969c-0.615-1.096-0.923-2.566-0.923-4.412
		c0-1.43,0.185-2.657,0.554-3.683c0.691-1.91,1.942-2.865,3.753-2.865C66.463,179.974,67.641,180.645,68.368,181.986z
		 M66.775,190.371c0.487-0.727,0.731-2.08,0.731-4.061c0-1.43-0.176-2.606-0.528-3.528c-0.352-0.924-1.036-1.385-2.051-1.385
		c-0.933,0-1.615,0.438-2.047,1.314c-0.431,0.876-0.647,2.166-0.647,3.871c0,1.283,0.138,2.314,0.414,3.094
		c0.423,1.189,1.145,1.784,2.166,1.784C65.634,191.461,66.289,191.098,66.775,190.371z"/>
</g>
<path style="fill:none;stroke:#000000;stroke-miterlimit:10;" d="M76.298,190.559 M83.499,161.658h3.15 M359.448,161.658h-3.149
	 M76.298,161.658"/>
<g>
	<path d="M41.179,164.839c0.39-0.803,1.15-1.532,2.281-2.188l1.688-0.976c0.756-0.439,1.286-0.814,1.591-1.126
		c0.48-0.487,0.721-1.045,0.721-1.673c0-0.734-0.22-1.316-0.659-1.748s-1.025-0.647-1.758-0.647c-1.084,0-1.834,0.411-2.25,1.234
		c-0.223,0.44-0.346,1.052-0.369,1.833h-1.608c0.018-1.096,0.22-1.989,0.606-2.681c0.686-1.219,1.896-1.828,3.63-1.828
		c1.441,0,2.495,0.39,3.16,1.169s0.998,1.646,0.998,2.602c0,1.008-0.354,1.869-1.063,2.584c-0.41,0.416-1.146,0.92-2.206,1.512
		l-1.204,0.668c-0.574,0.316-1.025,0.618-1.354,0.905c-0.586,0.51-0.955,1.075-1.107,1.696h6.873v1.494h-8.64
		C40.565,166.585,40.789,165.642,41.179,164.839z"/>
	<path d="M58.357,157.096c0.562,1.037,0.844,2.458,0.844,4.263c0,1.711-0.255,3.126-0.765,4.245
		c-0.738,1.605-1.945,2.408-3.621,2.408c-1.512,0-2.637-0.656-3.375-1.969c-0.615-1.096-0.923-2.566-0.923-4.412
		c0-1.43,0.185-2.657,0.554-3.683c0.691-1.91,1.942-2.865,3.753-2.865C56.453,155.083,57.63,155.754,58.357,157.096z M56.765,165.48
		c0.487-0.727,0.731-2.08,0.731-4.061c0-1.43-0.176-2.606-0.528-3.528c-0.352-0.924-1.036-1.385-2.051-1.385
		c-0.933,0-1.615,0.438-2.047,1.314c-0.431,0.876-0.647,2.166-0.647,3.871c0,1.283,0.138,2.314,0.414,3.094
		c0.423,1.189,1.145,1.784,2.166,1.784C55.623,166.57,56.278,166.207,56.765,165.48z"/>
	<path d="M68.368,157.096c0.562,1.037,0.844,2.458,0.844,4.263c0,1.711-0.255,3.126-0.765,4.245
		c-0.738,1.605-1.945,2.408-3.621,2.408c-1.512,0-2.637-0.656-3.375-1.969c-0.615-1.096-0.923-2.566-0.923-4.412
		c0-1.43,0.185-2.657,0.554-3.683c0.691-1.91,1.942-2.865,3.753-2.865C66.463,155.083,67.641,155.754,68.368,157.096z
		 M66.775,165.48c0.487-0.727,0.731-2.08,0.731-4.061c0-1.43-0.176-2.606-0.528-3.528c-0.352-0.924-1.036-1.385-2.051-1.385
		c-0.933,0-1.615,0.438-2.047,1.314c-0.431,0.876-0.647,2.166-0.647,3.871c0,1.283,0.138,2.314,0.414,3.094
		c0.423,1.189,1.145,1.784,2.166,1.784C65.634,166.57,66.289,166.207,66.775,165.48z"/>
</g>
<path style="fill:none;stroke:#000000;stroke-miterlimit:10;" d="M76.298,165.658 M83.499,136.759h3.15 M359.448,136.759h-3.149
	 M76.298,136.759"/>
<g>
	<path d="M41.381,141.88c-0.671-0.818-1.006-1.812-1.006-2.984h1.652c0.07,0.814,0.223,1.406,0.457,1.775
		c0.41,0.662,1.151,0.993,2.224,0.993c0.832,0,1.5-0.223,2.004-0.668s0.756-1.02,0.756-1.723c0-0.867-0.265-1.474-0.795-1.819
		s-1.267-0.519-2.21-0.519c-0.105,0-0.212,0.002-0.321,0.005s-0.218,0.007-0.33,0.013v-1.397c0.164,0.018,0.302,0.029,0.413,0.035
		s0.231,0.009,0.36,0.009c0.592,0,1.078-0.094,1.459-0.281c0.668-0.328,1.002-0.914,1.002-1.758c0-0.627-0.223-1.11-0.668-1.45
		s-0.964-0.51-1.556-0.51c-1.055,0-1.784,0.352-2.188,1.055c-0.223,0.387-0.349,0.938-0.378,1.652h-1.564
		c0-0.938,0.188-1.734,0.562-2.391c0.645-1.172,1.778-1.758,3.401-1.758c1.283,0,2.276,0.285,2.979,0.857
		c0.703,0.57,1.055,1.398,1.055,2.482c0,0.773-0.208,1.4-0.624,1.881c-0.258,0.299-0.592,0.533-1.002,0.703
		c0.662,0.182,1.179,0.531,1.551,1.051c0.372,0.518,0.558,1.152,0.558,1.902c0,1.201-0.396,2.18-1.187,2.936
		s-1.913,1.134-3.366,1.134C43.131,143.105,42.052,142.696,41.381,141.88z"/>
	<path d="M58.357,132.189c0.562,1.037,0.844,2.458,0.844,4.263c0,1.711-0.255,3.126-0.765,4.245
		c-0.738,1.605-1.945,2.408-3.621,2.408c-1.512,0-2.637-0.656-3.375-1.969c-0.615-1.096-0.923-2.566-0.923-4.412
		c0-1.43,0.185-2.657,0.554-3.683c0.691-1.91,1.942-2.865,3.753-2.865C56.453,130.177,57.63,130.848,58.357,132.189z
		 M56.765,140.574c0.487-0.727,0.731-2.08,0.731-4.061c0-1.43-0.176-2.606-0.528-3.528c-0.352-0.924-1.036-1.385-2.051-1.385
		c-0.933,0-1.615,0.438-2.047,1.314c-0.431,0.876-0.647,2.166-0.647,3.871c0,1.283,0.138,2.314,0.414,3.094
		c0.423,1.189,1.145,1.784,2.166,1.784C55.623,141.664,56.278,141.301,56.765,140.574z"/>
	<path d="M68.368,132.189c0.562,1.037,0.844,2.458,0.844,4.263c0,1.711-0.255,3.126-0.765,4.245
		c-0.738,1.605-1.945,2.408-3.621,2.408c-1.512,0-2.637-0.656-3.375-1.969c-0.615-1.096-0.923-2.566-0.923-4.412
		c0-1.43,0.185-2.657,0.554-3.683c0.691-1.91,1.942-2.865,3.753-2.865C66.463,130.177,67.641,130.848,68.368,132.189z
		 M66.775,140.574c0.487-0.727,0.731-2.08,0.731-4.061c0-1.43-0.176-2.606-0.528-3.528c-0.352-0.924-1.036-1.385-2.051-1.385
		c-0.933,0-1.615,0.438-2.047,1.314c-0.431,0.876-0.647,2.166-0.647,3.871c0,1.283,0.138,2.314,0.414,3.094
		c0.423,1.189,1.145,1.784,2.166,1.784C65.634,141.664,66.289,141.301,66.775,140.574z"/>
</g>
<path style="fill:none;stroke:#000000;stroke-miterlimit:10;" d="M76.298,140.759 M83.499,111.858h3.15 M359.448,111.858h-3.149
	 M76.298,111.858"/>
<g>
	<path d="M45.92,117.864v-3.076h-5.52v-1.547l5.766-7.998h1.336v8.165h1.854v1.38h-1.854v3.076H45.92z M45.894,113.408v-5.717
		l-4.034,5.717H45.894z"/>
	<path d="M58.357,107.291c0.562,1.037,0.844,2.458,0.844,4.263c0,1.711-0.255,3.126-0.765,4.245
		c-0.738,1.605-1.945,2.408-3.621,2.408c-1.512,0-2.637-0.656-3.375-1.969c-0.615-1.096-0.923-2.566-0.923-4.412
		c0-1.43,0.185-2.657,0.554-3.683c0.691-1.91,1.942-2.865,3.753-2.865C56.453,105.278,57.63,105.949,58.357,107.291z
		 M56.765,115.676c0.487-0.727,0.731-2.08,0.731-4.061c0-1.43-0.176-2.606-0.528-3.529s-1.036-1.384-2.051-1.384
		c-0.933,0-1.615,0.438-2.047,1.314c-0.431,0.876-0.647,2.167-0.647,3.872c0,1.283,0.138,2.314,0.414,3.094
		c0.423,1.189,1.145,1.784,2.166,1.784C55.623,116.766,56.278,116.402,56.765,115.676z"/>
	<path d="M68.368,107.291c0.562,1.037,0.844,2.458,0.844,4.263c0,1.711-0.255,3.126-0.765,4.245
		c-0.738,1.605-1.945,2.408-3.621,2.408c-1.512,0-2.637-0.656-3.375-1.969c-0.615-1.096-0.923-2.566-0.923-4.412
		c0-1.43,0.185-2.657,0.554-3.683c0.691-1.91,1.942-2.865,3.753-2.865C66.463,105.278,67.641,105.949,68.368,107.291z
		 M66.775,115.676c0.487-0.727,0.731-2.08,0.731-4.061c0-1.43-0.176-2.606-0.528-3.529s-1.036-1.384-2.051-1.384
		c-0.933,0-1.615,0.438-2.047,1.314c-0.431,0.876-0.647,2.167-0.647,3.872c0,1.283,0.138,2.314,0.414,3.094
		c0.423,1.189,1.145,1.784,2.166,1.784C65.634,116.766,66.289,116.402,66.775,115.676z"/>
</g>
<path style="fill:none;stroke:#000000;stroke-miterlimit:10;" d="M76.298,115.858 M83.499,87.009h3.15 M359.448,87.009h-3.149
	 M76.298,87.009"/>
<g>
	<path d="M42.167,89.812c0.105,0.902,0.524,1.526,1.257,1.872c0.375,0.176,0.809,0.264,1.301,0.264c0.938,0,1.632-0.299,2.083-0.896
		s0.677-1.26,0.677-1.986c0-0.879-0.268-1.559-0.804-2.039s-1.179-0.721-1.929-0.721c-0.545,0-1.012,0.105-1.402,0.316
		s-0.722,0.504-0.998,0.879l-1.371-0.079l0.958-6.776h6.539v1.529h-5.353l-0.536,3.498c0.293-0.223,0.571-0.39,0.835-0.501
		c0.469-0.193,1.011-0.29,1.626-0.29c1.154,0,2.133,0.372,2.936,1.116s1.204,1.688,1.204,2.83c0,1.189-0.368,2.238-1.103,3.146
		s-1.909,1.362-3.52,1.362c-1.025,0-1.932-0.289-2.72-0.866s-1.229-1.463-1.323-2.659H42.167z"/>
	<path d="M58.357,82.447c0.562,1.037,0.844,2.458,0.844,4.263c0,1.711-0.255,3.126-0.765,4.245
		c-0.738,1.605-1.945,2.408-3.621,2.408c-1.512,0-2.637-0.656-3.375-1.969c-0.615-1.096-0.923-2.566-0.923-4.412
		c0-1.43,0.185-2.657,0.554-3.683c0.691-1.91,1.942-2.865,3.753-2.865C56.453,80.435,57.63,81.105,58.357,82.447z M56.765,90.832
		c0.487-0.727,0.731-2.08,0.731-4.061c0-1.43-0.176-2.606-0.528-3.529s-1.036-1.384-2.051-1.384c-0.933,0-1.615,0.438-2.047,1.314
		c-0.431,0.876-0.647,2.167-0.647,3.872c0,1.283,0.138,2.314,0.414,3.094c0.423,1.189,1.145,1.784,2.166,1.784
		C55.623,91.922,56.278,91.559,56.765,90.832z"/>
	<path d="M68.368,82.447c0.562,1.037,0.844,2.458,0.844,4.263c0,1.711-0.255,3.126-0.765,4.245
		c-0.738,1.605-1.945,2.408-3.621,2.408c-1.512,0-2.637-0.656-3.375-1.969c-0.615-1.096-0.923-2.566-0.923-4.412
		c0-1.43,0.185-2.657,0.554-3.683c0.691-1.91,1.942-2.865,3.753-2.865C66.463,80.435,67.641,81.105,68.368,82.447z M66.775,90.832
		c0.487-0.727,0.731-2.08,0.731-4.061c0-1.43-0.176-2.606-0.528-3.529s-1.036-1.384-2.051-1.384c-0.933,0-1.615,0.438-2.047,1.314
		c-0.431,0.876-0.647,2.167-0.647,3.872c0,1.283,0.138,2.314,0.414,3.094c0.423,1.189,1.145,1.784,2.166,1.784
		C65.634,91.922,66.289,91.559,66.775,90.832z"/>
</g>
<path style="fill:none;stroke:#000000;stroke-miterlimit:10;" d="M76.298,91.009 M83.499,62.108h3.15 M359.448,62.108h-3.149
	 M76.298,62.108"/>
<g>
	<path d="M48.148,56.57c0.554,0.729,0.831,1.481,0.831,2.254h-1.564c-0.094-0.498-0.243-0.888-0.448-1.169
		c-0.381-0.527-0.958-0.791-1.731-0.791c-0.885,0-1.588,0.409-2.109,1.226s-0.812,1.988-0.87,3.511
		c0.363-0.533,0.82-0.932,1.371-1.195c0.504-0.234,1.066-0.352,1.688-0.352c1.055,0,1.975,0.337,2.76,1.011s1.178,1.679,1.178,3.015
		c0,1.143-0.372,2.155-1.116,3.037s-1.805,1.323-3.182,1.323c-1.178,0-2.194-0.447-3.05-1.34s-1.283-2.398-1.283-4.513
		c0-1.564,0.19-2.892,0.571-3.981c0.732-2.086,2.071-3.129,4.017-3.129C46.615,55.476,47.595,55.84,48.148,56.57z M46.962,66.194
		c0.413-0.56,0.62-1.22,0.62-1.982c0-0.645-0.185-1.258-0.554-1.841s-1.04-0.875-2.013-0.875c-0.68,0-1.276,0.226-1.789,0.677
		s-0.769,1.131-0.769,2.039c0,0.797,0.233,1.466,0.699,2.008s1.112,0.813,1.938,0.813C45.926,67.033,46.549,66.753,46.962,66.194z"
		/>
	<path d="M58.357,57.541c0.562,1.037,0.844,2.458,0.844,4.263c0,1.711-0.255,3.126-0.765,4.245
		c-0.738,1.605-1.945,2.408-3.621,2.408c-1.512,0-2.637-0.656-3.375-1.969c-0.615-1.096-0.923-2.566-0.923-4.412
		c0-1.43,0.185-2.657,0.554-3.683c0.691-1.91,1.942-2.865,3.753-2.865C56.453,55.528,57.63,56.199,58.357,57.541z M56.765,65.926
		c0.487-0.727,0.731-2.08,0.731-4.061c0-1.43-0.176-2.606-0.528-3.529s-1.036-1.384-2.051-1.384c-0.933,0-1.615,0.438-2.047,1.314
		c-0.431,0.876-0.647,2.167-0.647,3.872c0,1.283,0.138,2.314,0.414,3.094c0.423,1.189,1.145,1.784,2.166,1.784
		C55.623,67.016,56.278,66.652,56.765,65.926z"/>
	<path d="M68.368,57.541c0.562,1.037,0.844,2.458,0.844,4.263c0,1.711-0.255,3.126-0.765,4.245
		c-0.738,1.605-1.945,2.408-3.621,2.408c-1.512,0-2.637-0.656-3.375-1.969c-0.615-1.096-0.923-2.566-0.923-4.412
		c0-1.43,0.185-2.657,0.554-3.683c0.691-1.91,1.942-2.865,3.753-2.865C66.463,55.528,67.641,56.199,68.368,57.541z M66.775,65.926
		c0.487-0.727,0.731-2.08,0.731-4.061c0-1.43-0.176-2.606-0.528-3.529s-1.036-1.384-2.051-1.384c-0.933,0-1.615,0.438-2.047,1.314
		c-0.431,0.876-0.647,2.167-0.647,3.872c0,1.283,0.138,2.314,0.414,3.094c0.423,1.189,1.145,1.784,2.166,1.784
		C65.634,67.016,66.289,66.652,66.775,65.926z"/>
</g>
<path style="fill:none;stroke:#000000;stroke-miterlimit:10;" d="M76.298,66.108 M83.499,37.208h3.15 M359.448,37.208h-3.149
	 M76.298,37.208"/>
<g>
	<path d="M49.357,30.841v1.38c-0.404,0.393-0.942,1.075-1.613,2.048s-1.264,2.021-1.78,3.146c-0.51,1.096-0.896,2.095-1.16,2.997
		c-0.17,0.58-0.39,1.515-0.659,2.804h-1.749c0.398-2.402,1.277-4.793,2.637-7.172c0.803-1.395,1.646-2.599,2.531-3.612h-6.961
		v-1.591H49.357z"/>
	<path d="M58.357,32.643c0.562,1.037,0.844,2.458,0.844,4.263c0,1.711-0.255,3.126-0.765,4.245
		c-0.738,1.605-1.945,2.408-3.621,2.408c-1.512,0-2.637-0.656-3.375-1.969c-0.615-1.096-0.923-2.566-0.923-4.412
		c0-1.43,0.185-2.657,0.554-3.683c0.691-1.91,1.942-2.865,3.753-2.865C56.453,30.63,57.63,31.301,58.357,32.643z M56.765,41.027
		c0.487-0.727,0.731-2.08,0.731-4.061c0-1.43-0.176-2.606-0.528-3.529s-1.036-1.384-2.051-1.384c-0.933,0-1.615,0.438-2.047,1.314
		c-0.431,0.876-0.647,2.167-0.647,3.872c0,1.283,0.138,2.314,0.414,3.094c0.423,1.189,1.145,1.784,2.166,1.784
		C55.623,42.117,56.278,41.754,56.765,41.027z"/>
	<path d="M68.368,32.643c0.562,1.037,0.844,2.458,0.844,4.263c0,1.711-0.255,3.126-0.765,4.245
		c-0.738,1.605-1.945,2.408-3.621,2.408c-1.512,0-2.637-0.656-3.375-1.969c-0.615-1.096-0.923-2.566-0.923-4.412
		c0-1.43,0.185-2.657,0.554-3.683c0.691-1.91,1.942-2.865,3.753-2.865C66.463,30.63,67.641,31.301,68.368,32.643z M66.775,41.027
		c0.487-0.727,0.731-2.08,0.731-4.061c0-1.43-0.176-2.606-0.528-3.529s-1.036-1.384-2.051-1.384c-0.933,0-1.615,0.438-2.047,1.314
		c-0.431,0.876-0.647,2.167-0.647,3.872c0,1.283,0.138,2.314,0.414,3.094c0.423,1.189,1.145,1.784,2.166,1.784
		C65.634,42.117,66.289,41.754,66.775,41.027z"/>
</g>
<path style="fill:none;stroke:#000000;stroke-miterlimit:10;" d="M76.298,41.208 M83.499,12.309h3.15 M359.448,12.309h-3.149
	 M76.298,12.309"/>
<g>
	<path d="M41.658,10.944c-0.463-0.469-0.694-1.078-0.694-1.828c0-0.938,0.339-1.743,1.018-2.417
		c0.679-0.674,1.642-1.011,2.889-1.011c1.206,0,2.151,0.318,2.835,0.954c0.685,0.636,1.027,1.378,1.027,2.228
		c0,0.785-0.199,1.421-0.597,1.907c-0.223,0.275-0.568,0.545-1.037,0.809c0.523,0.24,0.935,0.516,1.235,0.826
		c0.559,0.586,0.838,1.348,0.838,2.285c0,1.107-0.372,2.046-1.116,2.817s-1.796,1.156-3.155,1.156c-1.225,0-2.26-0.333-3.107-0.998
		s-1.27-1.63-1.27-2.896c0-0.744,0.182-1.387,0.545-1.929s0.902-0.957,1.617-1.244C42.247,11.416,41.904,11.196,41.658,10.944z
		 M46.76,16.635c0.483-0.396,0.725-0.986,0.725-1.771c0-0.814-0.249-1.433-0.747-1.854s-1.137-0.633-1.916-0.633
		c-0.756,0-1.373,0.215-1.85,0.646s-0.716,1.027-0.716,1.789c0,0.656,0.218,1.223,0.655,1.701s1.112,0.716,2.026,0.716
		C45.668,17.229,46.276,17.031,46.76,16.635z M46.466,10.411c0.392-0.39,0.588-0.856,0.588-1.396c0-0.47-0.187-0.901-0.562-1.295
		c-0.374-0.394-0.944-0.59-1.71-0.59c-0.76,0-1.31,0.197-1.649,0.59c-0.339,0.394-0.509,0.854-0.509,1.383
		c0,0.593,0.219,1.057,0.658,1.392c0.439,0.334,0.956,0.502,1.553,0.502C45.531,10.997,46.075,10.802,46.466,10.411z"/>
	<path d="M58.357,7.736c0.562,1.037,0.844,2.458,0.844,4.263c0,1.711-0.255,3.126-0.765,4.245c-0.738,1.605-1.945,2.408-3.621,2.408
		c-1.512,0-2.637-0.656-3.375-1.969c-0.615-1.096-0.923-2.566-0.923-4.412c0-1.43,0.185-2.657,0.554-3.683
		c0.691-1.91,1.942-2.865,3.753-2.865C56.453,5.724,57.63,6.395,58.357,7.736z M56.765,16.121c0.487-0.727,0.731-2.08,0.731-4.061
		c0-1.43-0.176-2.606-0.528-3.529s-1.036-1.384-2.051-1.384c-0.933,0-1.615,0.438-2.047,1.314c-0.431,0.876-0.647,2.167-0.647,3.872
		c0,1.283,0.138,2.314,0.414,3.094c0.423,1.189,1.145,1.784,2.166,1.784C55.623,17.211,56.278,16.848,56.765,16.121z"/>
	<path d="M68.368,7.736c0.562,1.037,0.844,2.458,0.844,4.263c0,1.711-0.255,3.126-0.765,4.245c-0.738,1.605-1.945,2.408-3.621,2.408
		c-1.512,0-2.637-0.656-3.375-1.969c-0.615-1.096-0.923-2.566-0.923-4.412c0-1.43,0.185-2.657,0.554-3.683
		c0.691-1.91,1.942-2.865,3.753-2.865C66.463,5.724,67.641,6.395,68.368,7.736z M66.775,16.121c0.487-0.727,0.731-2.08,0.731-4.061
		c0-1.43-0.176-2.606-0.528-3.529s-1.036-1.384-2.051-1.384c-0.933,0-1.615,0.438-2.047,1.314c-0.431,0.876-0.647,2.167-0.647,3.872
		c0,1.283,0.138,2.314,0.414,3.094c0.423,1.189,1.145,1.784,2.166,1.784C65.634,17.211,66.289,16.848,66.775,16.121z"/>
</g>
<path style="fill:none;stroke:#000000;stroke-miterlimit:10;" d="M76.298,16.309 M83.499,211.459v-3.15 M83.499,12.309v3.15
	 M83.499,223.459"/>
<g>
	<path d="M89.701,223.887c0.562,1.037,0.844,2.458,0.844,4.263c0,1.711-0.255,3.126-0.765,4.245
		c-0.738,1.605-1.945,2.408-3.621,2.408c-1.512,0-2.637-0.656-3.375-1.969c-0.615-1.096-0.923-2.566-0.923-4.412
		c0-1.43,0.185-2.657,0.554-3.683c0.691-1.91,1.942-2.865,3.753-2.865C87.797,221.874,88.975,222.545,89.701,223.887z
		 M88.109,232.271c0.487-0.727,0.731-2.08,0.731-4.061c0-1.43-0.176-2.606-0.528-3.528c-0.352-0.924-1.036-1.385-2.051-1.385
		c-0.933,0-1.615,0.438-2.047,1.314c-0.431,0.876-0.647,2.166-0.647,3.871c0,1.283,0.138,2.314,0.414,3.094
		c0.423,1.189,1.145,1.784,2.166,1.784C86.967,233.361,87.622,232.998,88.109,232.271z"/>
</g>
<path style="fill:none;stroke:#000000;stroke-miterlimit:10;" d="M88.503,227.459 M138.699,211.459v-3.15 M138.699,12.309v3.15
	 M138.699,223.459"/>
<g>
	<path d="M132.4,231.63c0.39-0.803,1.15-1.532,2.281-2.188l1.688-0.976c0.756-0.439,1.286-0.814,1.591-1.126
		c0.48-0.487,0.721-1.045,0.721-1.673c0-0.734-0.22-1.316-0.659-1.748s-1.025-0.647-1.758-0.647c-1.084,0-1.834,0.411-2.25,1.234
		c-0.223,0.44-0.346,1.052-0.369,1.833h-1.608c0.018-1.096,0.22-1.989,0.606-2.681c0.686-1.219,1.896-1.828,3.63-1.828
		c1.441,0,2.495,0.39,3.16,1.169s0.998,1.646,0.998,2.602c0,1.008-0.354,1.869-1.063,2.584c-0.41,0.416-1.146,0.92-2.206,1.512
		l-1.204,0.668c-0.574,0.316-1.025,0.618-1.354,0.905c-0.586,0.51-0.955,1.075-1.107,1.696h6.873v1.494h-8.64
		C131.787,233.376,132.011,232.433,132.4,231.63z"/>
	<path d="M149.579,223.887c0.562,1.037,0.844,2.458,0.844,4.263c0,1.711-0.255,3.126-0.765,4.245
		c-0.738,1.605-1.945,2.408-3.621,2.408c-1.512,0-2.637-0.656-3.375-1.969c-0.615-1.096-0.923-2.566-0.923-4.412
		c0-1.43,0.185-2.657,0.554-3.683c0.691-1.91,1.942-2.865,3.753-2.865C147.674,221.874,148.852,222.545,149.579,223.887z
		 M147.986,232.271c0.487-0.727,0.731-2.08,0.731-4.061c0-1.43-0.176-2.606-0.528-3.528c-0.352-0.924-1.036-1.385-2.051-1.385
		c-0.933,0-1.615,0.438-2.047,1.314c-0.431,0.876-0.647,2.166-0.647,3.871c0,1.283,0.138,2.314,0.414,3.094
		c0.423,1.189,1.145,1.784,2.166,1.784C146.845,233.361,147.5,232.998,147.986,232.271z"/>
</g>
<path style="fill:none;stroke:#000000;stroke-miterlimit:10;" d="M147.039,227.459 M193.898,211.459v-3.15 M193.898,12.309v3.15
	 M193.898,223.459"/>
<g>
	<path d="M192.015,234.46v-3.076h-5.52v-1.547l5.766-7.998h1.336v8.165h1.854v1.38h-1.854v3.076H192.015z M191.988,230.004v-5.717
		l-4.034,5.717H191.988z"/>
	<path d="M204.451,223.887c0.562,1.037,0.844,2.458,0.844,4.263c0,1.711-0.255,3.126-0.765,4.245
		c-0.738,1.605-1.945,2.408-3.621,2.408c-1.512,0-2.637-0.656-3.375-1.969c-0.615-1.096-0.923-2.566-0.923-4.412
		c0-1.43,0.185-2.657,0.554-3.683c0.691-1.91,1.942-2.865,3.753-2.865C202.547,221.874,203.725,222.545,204.451,223.887z
		 M202.859,232.271c0.487-0.727,0.73-2.08,0.73-4.061c0-1.43-0.176-2.606-0.528-3.528c-0.353-0.924-1.036-1.385-2.051-1.385
		c-0.934,0-1.616,0.438-2.047,1.314c-0.432,0.876-0.647,2.166-0.647,3.871c0,1.283,0.138,2.314,0.414,3.094
		c0.422,1.189,1.145,1.784,2.165,1.784C201.718,233.361,202.372,232.998,202.859,232.271z"/>
</g>
<path style="fill:none;stroke:#000000;stroke-miterlimit:10;" d="M202.239,227.459 M249.049,211.459v-3.15 M249.049,12.309v3.15
	 M249.049,223.459"/>
<g>
	<path d="M249.115,222.915c0.553,0.73,0.83,1.481,0.83,2.255h-1.564c-0.094-0.498-0.243-0.888-0.448-1.169
		c-0.381-0.527-0.958-0.791-1.731-0.791c-0.885,0-1.588,0.408-2.109,1.227c-0.521,0.816-0.812,1.987-0.87,3.511
		c0.363-0.533,0.82-0.932,1.371-1.195c0.504-0.234,1.066-0.352,1.688-0.352c1.055,0,1.975,0.337,2.76,1.011s1.178,1.679,1.178,3.015
		c0,1.143-0.372,2.155-1.116,3.036c-0.744,0.883-1.805,1.323-3.182,1.323c-1.178,0-2.194-0.446-3.05-1.341
		c-0.855-0.893-1.283-2.397-1.283-4.513c0-1.564,0.19-2.892,0.571-3.981c0.732-2.086,2.071-3.129,4.017-3.129
		C247.581,221.821,248.561,222.187,249.115,222.915z M247.928,232.54c0.414-0.56,0.62-1.221,0.62-1.982
		c0-0.645-0.185-1.258-0.554-1.842c-0.369-0.582-1.04-0.874-2.013-0.874c-0.68,0-1.276,0.226-1.788,0.677
		c-0.514,0.451-0.77,1.131-0.77,2.039c0,0.797,0.232,1.467,0.699,2.008c0.465,0.543,1.111,0.813,1.938,0.813
		C246.893,233.379,247.516,233.1,247.928,232.54z"/>
	<path d="M259.323,223.887c0.562,1.037,0.844,2.458,0.844,4.263c0,1.711-0.255,3.126-0.765,4.245
		c-0.738,1.605-1.945,2.408-3.621,2.408c-1.512,0-2.637-0.656-3.375-1.969c-0.615-1.096-0.923-2.566-0.923-4.412
		c0-1.43,0.185-2.657,0.554-3.683c0.691-1.91,1.942-2.865,3.753-2.865C257.419,221.874,258.597,222.545,259.323,223.887z
		 M257.731,232.271c0.487-0.727,0.73-2.08,0.73-4.061c0-1.43-0.176-2.606-0.528-3.528c-0.353-0.924-1.036-1.385-2.051-1.385
		c-0.934,0-1.616,0.438-2.047,1.314c-0.432,0.876-0.647,2.166-0.647,3.871c0,1.283,0.138,2.314,0.414,3.094
		c0.422,1.189,1.145,1.784,2.165,1.784C256.59,233.361,257.244,232.998,257.731,232.271z"/>
</g>
<path style="fill:none;stroke:#000000;stroke-miterlimit:10;" d="M257.389,227.459 M304.249,211.459v-3.15 M304.249,12.309v3.15
	 M304.249,223.459"/>
<g>
	<path d="M297.496,227.095c-0.463-0.469-0.693-1.078-0.693-1.828c0-0.938,0.338-1.743,1.018-2.417s1.643-1.011,2.889-1.011
		c1.205,0,2.15,0.318,2.836,0.953c0.684,0.637,1.027,1.379,1.027,2.229c0,0.785-0.199,1.421-0.598,1.907
		c-0.223,0.275-0.568,0.545-1.037,0.809c0.523,0.24,0.936,0.516,1.236,0.826c0.559,0.586,0.838,1.348,0.838,2.285
		c0,1.107-0.373,2.047-1.117,2.817s-1.795,1.155-3.154,1.155c-1.225,0-2.262-0.333-3.107-0.997c-0.848-0.665-1.27-1.631-1.27-2.896
		c0-0.744,0.182-1.387,0.545-1.93c0.363-0.541,0.902-0.956,1.617-1.243C298.086,227.566,297.742,227.347,297.496,227.095z
		 M302.6,232.786c0.482-0.396,0.725-0.986,0.725-1.771c0-0.814-0.25-1.433-0.748-1.854s-1.137-0.633-1.916-0.633
		c-0.756,0-1.373,0.216-1.85,0.646c-0.479,0.432-0.717,1.027-0.717,1.789c0,0.656,0.219,1.224,0.656,1.701
		c0.436,0.478,1.111,0.716,2.025,0.716C301.508,233.379,302.115,233.181,302.6,232.786z M302.305,226.562
		c0.393-0.391,0.588-0.855,0.588-1.396c0-0.47-0.188-0.901-0.561-1.295c-0.375-0.393-0.945-0.59-1.711-0.59
		c-0.76,0-1.311,0.197-1.648,0.59c-0.34,0.394-0.51,0.855-0.51,1.384c0,0.593,0.219,1.057,0.658,1.392s0.957,0.502,1.553,0.502
		C301.369,227.147,301.914,226.952,302.305,226.562z"/>
	<path d="M314.195,223.887c0.562,1.037,0.844,2.458,0.844,4.263c0,1.711-0.254,3.126-0.764,4.245
		c-0.738,1.605-1.945,2.408-3.621,2.408c-1.512,0-2.637-0.656-3.375-1.969c-0.615-1.096-0.924-2.566-0.924-4.412
		c0-1.43,0.186-2.657,0.555-3.683c0.691-1.91,1.941-2.865,3.752-2.865C312.291,221.874,313.469,222.545,314.195,223.887z
		 M312.604,232.271c0.488-0.727,0.73-2.08,0.73-4.061c0-1.43-0.176-2.606-0.527-3.528c-0.354-0.924-1.037-1.385-2.051-1.385
		c-0.934,0-1.617,0.438-2.047,1.314c-0.432,0.876-0.648,2.166-0.648,3.871c0,1.283,0.139,2.314,0.414,3.094
		c0.422,1.189,1.145,1.784,2.166,1.784C311.463,233.361,312.117,232.998,312.604,232.271z"/>
</g>
<path style="fill:none;stroke:#000000;stroke-miterlimit:10;" d="M312.589,227.459 M359.448,211.459v-3.15 M359.448,12.309v3.15
	 M359.448,223.459"/>
<g>
	<path d="M347.372,225.548v-1.213c1.143-0.111,1.939-0.297,2.391-0.559c0.451-0.26,0.788-0.877,1.011-1.85h1.248v12.533h-1.688
		v-8.912H347.372z"/>
	<path d="M364.062,223.887c0.562,1.037,0.844,2.458,0.844,4.263c0,1.711-0.255,3.126-0.765,4.245
		c-0.738,1.605-1.945,2.408-3.621,2.408c-1.512,0-2.637-0.656-3.375-1.969c-0.615-1.096-0.923-2.566-0.923-4.412
		c0-1.43,0.185-2.657,0.554-3.683c0.691-1.91,1.942-2.865,3.753-2.865C362.158,221.874,363.336,222.545,364.062,223.887z
		 M362.471,232.271c0.487-0.727,0.73-2.08,0.73-4.061c0-1.43-0.176-2.606-0.528-3.528c-0.353-0.924-1.036-1.385-2.051-1.385
		c-0.934,0-1.616,0.438-2.047,1.314c-0.432,0.876-0.647,2.166-0.647,3.871c0,1.283,0.138,2.314,0.414,3.094
		c0.422,1.189,1.145,1.784,2.165,1.784C361.329,233.361,361.983,232.998,362.471,232.271z"/>
	<path d="M374.073,223.887c0.562,1.037,0.844,2.458,0.844,4.263c0,1.711-0.255,3.126-0.765,4.245
		c-0.738,1.605-1.945,2.408-3.621,2.408c-1.512,0-2.637-0.656-3.375-1.969c-0.615-1.096-0.923-2.566-0.923-4.412
		c0-1.43,0.185-2.657,0.554-3.683c0.691-1.91,1.942-2.865,3.753-2.865C372.169,221.874,373.347,222.545,374.073,223.887z
		 M372.481,232.271c0.487-0.727,0.73-2.08,0.73-4.061c0-1.43-0.176-2.606-0.528-3.528c-0.353-0.924-1.036-1.385-2.051-1.385
		c-0.934,0-1.616,0.438-2.047,1.314c-0.432,0.876-0.647,2.166-0.647,3.871c0,1.283,0.138,2.314,0.414,3.094
		c0.422,1.189,1.145,1.784,2.165,1.784C371.34,233.361,371.994,232.998,372.481,232.271z"/>
</g>
<path style="fill:none;stroke:#000000;stroke-miterlimit:10;" d="M371.125,227.459"/>
<path style="fill:none;stroke:#000000;stroke-miterlimit:10;stroke-dasharray:0.5,1;" d="M83.499,211.459h275.95 M83.499,211.459
	V12.309"/>
<polygon style="fill:none;stroke:#000000;stroke-miterlimit:10;" points="83.499,12.309 83.499,211.459 359.448,211.459 
	359.448,12.309 83.499,12.309 "/>
<path style="fill:none;stroke:#000000;stroke-miterlimit:10;" d="M34.298,111.909"/>
<g>
	<path d="M7.391,165.926h1.538v4.351h11.373v1.767H8.929v4.351H7.391V165.926z"/>
	<path d="M11.148,158.714c0.313-0.623,0.719-1.098,1.217-1.424c0.475-0.314,1.028-0.523,1.661-0.629
		c0.434-0.093,1.125-0.14,2.074-0.14v6.847c0.958-0.029,1.726-0.253,2.305-0.672c0.579-0.418,0.868-1.066,0.868-1.944
		c0-0.819-0.274-1.474-0.821-1.962c-0.317-0.273-0.686-0.467-1.104-0.581v-1.556c0.346,0.041,0.731,0.178,1.156,0.408
		c0.425,0.232,0.772,0.49,1.042,0.775c0.469,0.477,0.785,1.066,0.949,1.771c0.094,0.378,0.141,0.806,0.141,1.282
		c0,1.164-0.426,2.151-1.279,2.961s-2.046,1.214-3.582,1.214c-1.512,0-2.739-0.407-3.683-1.223s-1.415-1.881-1.415-3.197
		C10.678,159.98,10.835,159.337,11.148,158.714z M14.844,158.147c-0.686,0.064-1.233,0.212-1.644,0.444
		c-0.762,0.431-1.143,1.147-1.143,2.153c0,0.72,0.262,1.324,0.787,1.812s1.191,0.746,2,0.775V158.147z"/>
	<path d="M10.889,154.518v-1.564h1.336c-0.463-0.375-0.8-0.715-1.011-1.02c-0.357-0.521-0.536-1.113-0.536-1.775
		c0-0.75,0.185-1.354,0.554-1.811c0.211-0.258,0.521-0.492,0.932-0.703c-0.504-0.352-0.877-0.765-1.121-1.239
		s-0.365-1.008-0.365-1.6c0-1.266,0.457-2.127,1.371-2.584c0.492-0.246,1.154-0.369,1.986-0.369h6.267v1.644h-6.539
		c-0.627,0-1.058,0.156-1.292,0.471c-0.234,0.312-0.352,0.695-0.352,1.146c0,0.621,0.208,1.156,0.624,1.604
		c0.416,0.449,1.11,0.673,2.083,0.673h5.476v1.608h-6.144c-0.639,0-1.104,0.076-1.397,0.229c-0.439,0.24-0.659,0.688-0.659,1.345
		c0,0.598,0.231,1.142,0.694,1.63c0.463,0.49,1.301,0.734,2.514,0.734h4.992v1.582H10.889z"/>
	<path d="M10.933,139.655v-1.547h1.248c-0.428-0.317-0.759-0.664-0.993-1.04c-0.352-0.534-0.527-1.163-0.527-1.885
		c0-1.07,0.409-1.978,1.226-2.724s1.985-1.119,3.502-1.119c2.051,0,3.516,0.538,4.395,1.614c0.557,0.683,0.835,1.477,0.835,2.383
		c0,0.712-0.155,1.309-0.466,1.791c-0.176,0.283-0.478,0.598-0.905,0.944h4.808v1.582H10.933z M18.312,133.703
		c-0.618-0.49-1.542-0.736-2.773-0.736c-0.75,0-1.395,0.109-1.934,0.326c-1.037,0.412-1.556,1.164-1.556,2.258
		c0,1.1,0.548,1.852,1.644,2.258c0.586,0.217,1.33,0.326,2.232,0.326c0.727,0,1.345-0.109,1.854-0.326
		c0.973-0.412,1.459-1.164,1.459-2.258C19.239,134.811,18.93,134.194,18.312,133.703z"/>
	<path d="M11.148,123.698c0.313-0.623,0.719-1.098,1.217-1.424c0.475-0.314,1.028-0.524,1.661-0.629
		c0.434-0.093,1.125-0.14,2.074-0.14v6.847c0.958-0.029,1.726-0.253,2.305-0.671c0.579-0.419,0.868-1.067,0.868-1.945
		c0-0.82-0.274-1.474-0.821-1.962c-0.317-0.273-0.686-0.467-1.104-0.581v-1.556c0.346,0.041,0.731,0.177,1.156,0.409
		s0.772,0.49,1.042,0.774c0.469,0.477,0.785,1.067,0.949,1.771c0.094,0.378,0.141,0.805,0.141,1.282
		c0,1.165-0.426,2.151-1.279,2.961s-2.046,1.214-3.582,1.214c-1.512,0-2.739-0.408-3.683-1.223s-1.415-1.881-1.415-3.197
		C10.678,124.965,10.835,124.322,11.148,123.698z M14.844,123.132c-0.686,0.064-1.233,0.212-1.644,0.444
		c-0.762,0.43-1.143,1.148-1.143,2.153c0,0.72,0.262,1.325,0.787,1.813c0.524,0.488,1.191,0.747,2,0.775V123.132z"/>
	<path d="M10.889,119.458v-1.503h1.626c-0.316-0.123-0.702-0.425-1.156-0.905s-0.681-1.034-0.681-1.661
		c0-0.029,0.003-0.079,0.009-0.149s0.018-0.19,0.035-0.36h1.67c-0.018,0.094-0.029,0.18-0.035,0.259s-0.009,0.166-0.009,0.259
		c0,0.797,0.256,1.409,0.769,1.837s1.103,0.642,1.771,0.642h5.414v1.582H10.889z"/>
	<path d="M14.605,108.463c-0.046-0.363-0.199-0.606-0.456-0.729c-0.141-0.07-0.344-0.105-0.609-0.105
		c-0.541,0-0.934,0.191-1.178,0.575c-0.244,0.383-0.366,0.931-0.366,1.645c0,0.824,0.224,1.409,0.671,1.754
		c0.248,0.193,0.615,0.318,1.104,0.377v1.477c-1.164-0.029-1.973-0.405-2.428-1.128s-0.683-1.561-0.683-2.515
		c0-1.106,0.211-2.004,0.633-2.695c0.422-0.685,1.078-1.027,1.969-1.027h5.423c0.164,0,0.296-0.034,0.396-0.101
		c0.099-0.067,0.149-0.209,0.149-0.426c0-0.07-0.004-0.149-0.013-0.237s-0.022-0.182-0.04-0.281h1.169
		c0.07,0.246,0.114,0.434,0.132,0.562s0.026,0.305,0.026,0.527c0,0.545-0.193,0.94-0.58,1.187c-0.205,0.129-0.495,0.22-0.87,0.272
		c0.422,0.322,0.788,0.785,1.098,1.389s0.466,1.269,0.466,1.995c0,0.873-0.265,1.586-0.794,2.14
		c-0.53,0.554-1.192,0.831-1.988,0.831c-0.872,0-1.548-0.272-2.028-0.817c-0.479-0.545-0.775-1.26-0.887-2.145L14.605,108.463z
		 M18.879,111.794c0.263-0.334,0.395-0.729,0.395-1.187c0-0.557-0.129-1.096-0.386-1.617c-0.427-0.879-1.126-1.318-2.097-1.318
		h-1.272c0.124,0.193,0.227,0.441,0.309,0.746c0.083,0.304,0.141,0.602,0.176,0.895l0.123,0.956
		c0.076,0.573,0.196,1.004,0.359,1.293c0.275,0.489,0.713,0.734,1.315,0.734C18.257,112.295,18.616,112.128,18.879,111.794z"/>
	<path d="M8.261,103.181v-1.6h2.628v-1.503h1.292v1.503h6.144c0.328,0,0.548-0.111,0.659-0.334c0.064-0.123,0.097-0.328,0.097-0.615
		c0-0.076-0.002-0.158-0.006-0.246s-0.014-0.19-0.029-0.308h1.257c0.053,0.182,0.091,0.371,0.114,0.567s0.035,0.409,0.035,0.637
		c0,0.738-0.189,1.239-0.567,1.503s-0.869,0.396-1.472,0.396h-6.231v1.274h-1.292v-1.274H8.261z"/>
	<path d="M10.889,96.914h6.249c0.48,0,0.873-0.074,1.178-0.223c0.562-0.274,0.844-0.785,0.844-1.532
		c0-1.073-0.492-1.803-1.477-2.191c-0.527-0.211-1.251-0.317-2.171-0.317h-4.623v-1.582h9.413v1.494l-1.389-0.018
		c0.357,0.202,0.659,0.452,0.905,0.75c0.492,0.592,0.738,1.311,0.738,2.156c0,1.316-0.448,2.213-1.345,2.69
		c-0.48,0.259-1.122,0.388-1.925,0.388h-6.398V96.914z"/>
	<path d="M10.889,88.441v-1.503h1.626c-0.316-0.123-0.702-0.425-1.156-0.905s-0.681-1.034-0.681-1.661
		c0-0.029,0.003-0.079,0.009-0.149s0.018-0.19,0.035-0.36h1.67c-0.018,0.094-0.029,0.18-0.035,0.259s-0.009,0.166-0.009,0.259
		c0,0.797,0.256,1.409,0.769,1.837s1.103,0.642,1.771,0.642h5.414v1.582H10.889z"/>
	<path d="M11.148,76.677c0.313-0.623,0.719-1.098,1.217-1.424c0.475-0.314,1.028-0.524,1.661-0.629
		c0.434-0.093,1.125-0.14,2.074-0.14v6.847c0.958-0.029,1.726-0.253,2.305-0.671c0.579-0.419,0.868-1.067,0.868-1.945
		c0-0.82-0.274-1.474-0.821-1.962c-0.317-0.273-0.686-0.467-1.104-0.581v-1.556c0.346,0.041,0.731,0.177,1.156,0.409
		s0.772,0.49,1.042,0.774c0.469,0.477,0.785,1.067,0.949,1.771c0.094,0.378,0.141,0.805,0.141,1.282
		c0,1.165-0.426,2.151-1.279,2.961c-0.853,0.809-2.046,1.214-3.582,1.214c-1.512,0-2.739-0.408-3.683-1.223
		c-0.943-0.815-1.415-1.881-1.415-3.197C10.678,77.943,10.835,77.3,11.148,76.677z M14.844,76.11
		c-0.686,0.064-1.233,0.212-1.644,0.444c-0.762,0.43-1.143,1.148-1.143,2.153c0,0.72,0.262,1.325,0.787,1.813
		c0.524,0.488,1.191,0.747,2,0.775V76.11z"/>
	<path d="M7.18,63.313c1.787,0.92,3.103,1.518,3.946,1.793c1.283,0.416,2.766,0.624,4.447,0.624c1.699,0,3.252-0.237,4.658-0.712
		c0.867-0.293,2.115-0.87,3.744-1.731v1.063c-1.336,0.855-2.188,1.386-2.558,1.591s-0.87,0.428-1.503,0.668
		c-0.867,0.328-1.793,0.557-2.777,0.686c-0.51,0.064-0.996,0.097-1.459,0.097c-1.734,0-3.278-0.272-4.632-0.817
		c-0.861-0.346-2.15-1.066-3.867-2.162V63.313z"/>
	<path d="M7.391,61.274v-1.705h6.32l-6.32-6.459v-2.445l5.21,5.517l7.701-5.631v2.289l-6.488,4.625l1.988,2.104h4.5v1.705H7.391z"/>
	<path d="M23.976,50.016c-1.816-0.932-3.141-1.532-3.973-1.802c-1.26-0.41-2.736-0.615-4.43-0.615s-3.243,0.237-4.649,0.712
		c-0.867,0.293-2.115,0.87-3.744,1.731v-1.063c1.441-0.902,2.331-1.449,2.667-1.639s0.801-0.397,1.393-0.62
		c0.732-0.281,1.456-0.482,2.171-0.602s1.403-0.18,2.065-0.18c1.734,0,3.281,0.275,4.641,0.826c0.873,0.346,2.159,1.063,3.858,2.153
		V50.016z"/>
</g>
<path style="fill:none;stroke:#000000;stroke-miterlimit:10;" d="M34.298,111.909 M221.448,241.459"/>
<g>
	<path d="M149.201,250.481c0.892,0.861,1.387,1.84,1.485,2.936h-1.705c-0.19-0.832-0.568-1.491-1.135-1.978
		s-1.362-0.729-2.386-0.729c-1.249,0-2.257,0.447-3.025,1.342c-0.769,0.894-1.152,2.265-1.152,4.112c0,1.513,0.347,2.74,1.041,3.681
		c0.693,0.941,1.728,1.412,3.104,1.412c1.267,0,2.23-0.495,2.893-1.485c0.351-0.521,0.613-1.207,0.786-2.057h1.705
		c-0.151,1.359-0.649,2.499-1.494,3.419c-1.014,1.107-2.381,1.661-4.101,1.661c-1.482,0-2.728-0.454-3.736-1.363
		c-1.326-1.202-1.989-3.058-1.989-5.567c0-1.905,0.498-3.468,1.494-4.688c1.077-1.324,2.562-1.987,4.457-1.987
		C147.055,249.189,148.309,249.62,149.201,250.481z"/>
	<path d="M159.678,253.979c0.832,0.808,1.248,1.996,1.248,3.565c0,1.516-0.367,2.769-1.1,3.758
		c-0.733,0.989-1.871,1.484-3.413,1.484c-1.286,0-2.307-0.438-3.063-1.312c-0.756-0.875-1.134-2.051-1.134-3.526
		c0-1.58,0.398-2.839,1.196-3.775c0.797-0.937,1.868-1.405,3.211-1.405C157.828,252.767,158.846,253.171,159.678,253.979z
		 M158.695,260.234c0.385-0.793,0.578-1.675,0.578-2.646c0-0.878-0.139-1.592-0.417-2.143c-0.44-0.865-1.2-1.299-2.277-1.299
		c-0.956,0-1.651,0.369-2.085,1.106s-0.652,1.627-0.652,2.668c0,1.001,0.217,1.835,0.652,2.502s1.124,1.001,2.068,1.001
		C157.599,261.424,158.31,261.027,158.695,260.234z"/>
	<path d="M162.868,253.039h1.564v1.336c0.375-0.463,0.715-0.8,1.02-1.011c0.521-0.357,1.113-0.536,1.775-0.536
		c0.75,0,1.354,0.185,1.811,0.554c0.258,0.211,0.492,0.521,0.703,0.932c0.352-0.504,0.765-0.877,1.239-1.121
		c0.475-0.242,1.008-0.364,1.6-0.364c1.266,0,2.127,0.457,2.584,1.371c0.246,0.492,0.369,1.154,0.369,1.986v6.267h-1.644v-6.539
		c0-0.627-0.157-1.058-0.471-1.292s-0.695-0.352-1.146-0.352c-0.621,0-1.156,0.208-1.604,0.624c-0.449,0.416-0.673,1.11-0.673,2.083
		v5.476h-1.608v-6.144c0-0.639-0.076-1.104-0.229-1.397c-0.24-0.439-0.688-0.659-1.345-0.659c-0.598,0-1.141,0.231-1.63,0.694
		s-0.734,1.301-0.734,2.514v4.992h-1.582V253.039z"/>
	<path d="M177.73,253.083h1.547v1.248c0.317-0.428,0.664-0.759,1.04-0.993c0.534-0.352,1.163-0.527,1.886-0.527
		c1.069,0,1.977,0.409,2.723,1.226c0.746,0.818,1.119,1.985,1.119,3.503c0,2.051-0.538,3.516-1.614,4.395
		c-0.683,0.557-1.477,0.835-2.383,0.835c-0.712,0-1.309-0.155-1.791-0.466c-0.282-0.176-0.598-0.478-0.944-0.905v4.808h-1.582
		V253.083z M183.683,260.462c0.491-0.618,0.736-1.543,0.736-2.773c0-0.75-0.108-1.395-0.326-1.934
		c-0.412-1.037-1.164-1.556-2.258-1.556c-1.1,0-1.852,0.548-2.258,1.644c-0.218,0.586-0.326,1.33-0.326,2.232
		c0,0.727,0.108,1.345,0.326,1.854c0.411,0.973,1.164,1.459,2.258,1.459C182.576,261.389,183.191,261.08,183.683,260.462z"/>
	<path d="M194.693,253.979c0.832,0.808,1.248,1.996,1.248,3.565c0,1.516-0.366,2.769-1.1,3.758s-1.871,1.484-3.412,1.484
		c-1.286,0-2.308-0.438-3.063-1.312c-0.757-0.875-1.135-2.051-1.135-3.526c0-1.58,0.398-2.839,1.195-3.775s1.868-1.405,3.212-1.405
		C192.843,252.767,193.861,253.171,194.693,253.979z M193.711,260.234c0.386-0.793,0.578-1.675,0.578-2.646
		c0-0.878-0.139-1.592-0.417-2.143c-0.44-0.865-1.199-1.299-2.277-1.299c-0.956,0-1.651,0.369-2.086,1.106s-0.651,1.627-0.651,2.668
		c0,1.001,0.217,1.835,0.651,2.502s1.124,1.001,2.069,1.001C192.614,261.424,193.326,261.027,193.711,260.234z"/>
	<path d="M198.824,259.499c0.048,0.527,0.183,0.932,0.403,1.213c0.407,0.51,1.112,0.765,2.117,0.765
		c0.598,0,1.124-0.128,1.579-0.382c0.454-0.256,0.682-0.649,0.682-1.183c0-0.404-0.182-0.712-0.545-0.923
		c-0.232-0.129-0.69-0.278-1.376-0.448l-1.276-0.316c-0.816-0.199-1.418-0.422-1.805-0.668c-0.69-0.428-1.036-1.02-1.036-1.775
		c0-0.891,0.325-1.611,0.976-2.162c0.649-0.551,1.524-0.826,2.623-0.826c1.437,0,2.473,0.416,3.108,1.248
		c0.397,0.527,0.591,1.096,0.579,1.705h-1.494c-0.03-0.355-0.159-0.679-0.387-0.971c-0.372-0.413-1.017-0.62-1.935-0.62
		c-0.611,0-1.075,0.114-1.39,0.342c-0.315,0.228-0.473,0.528-0.473,0.901c0,0.409,0.207,0.736,0.621,0.981
		c0.238,0.146,0.591,0.274,1.057,0.386l1.065,0.255c1.158,0.275,1.934,0.542,2.328,0.8c0.615,0.404,0.923,1.04,0.923,1.907
		c0,0.838-0.322,1.562-0.966,2.171s-1.624,0.914-2.94,0.914c-1.418,0-2.422-0.318-3.013-0.954c-0.59-0.635-0.906-1.422-0.947-2.359
		H198.824z"/>
	<path d="M206.884,249.541h1.608v1.793h-1.608V249.541z M206.884,253.083h1.608v9.369h-1.608V253.083z"/>
	<path d="M211.199,250.411h1.6v2.628h1.503v1.292h-1.503v6.144c0,0.328,0.111,0.548,0.334,0.659
		c0.123,0.064,0.328,0.097,0.615,0.097c0.076,0,0.158-0.002,0.246-0.006s0.19-0.014,0.308-0.029v1.257
		c-0.182,0.053-0.371,0.091-0.567,0.114s-0.408,0.035-0.637,0.035c-0.738,0-1.239-0.188-1.503-0.567
		c-0.264-0.377-0.396-0.868-0.396-1.472v-6.231h-1.274v-1.292h1.274V250.411z"/>
	<path d="M215.884,249.541h1.608v1.793h-1.608V249.541z M215.884,253.083h1.608v9.369h-1.608V253.083z"/>
	<path d="M226.703,253.979c0.832,0.808,1.248,1.996,1.248,3.565c0,1.516-0.366,2.769-1.1,3.758s-1.871,1.484-3.412,1.484
		c-1.286,0-2.308-0.438-3.063-1.312c-0.757-0.875-1.135-2.051-1.135-3.526c0-1.58,0.398-2.839,1.195-3.775s1.868-1.405,3.212-1.405
		C224.853,252.767,225.871,253.171,226.703,253.979z M225.721,260.234c0.386-0.793,0.578-1.675,0.578-2.646
		c0-0.878-0.139-1.592-0.417-2.143c-0.44-0.865-1.199-1.299-2.277-1.299c-0.956,0-1.651,0.369-2.086,1.106s-0.651,1.627-0.651,2.668
		c0,1.001,0.217,1.835,0.651,2.502s1.124,1.001,2.069,1.001C224.624,261.424,225.336,261.027,225.721,260.234z"/>
	<path d="M229.894,253.039h1.503v1.336c0.445-0.551,0.917-0.946,1.415-1.187s1.052-0.36,1.661-0.36c1.336,0,2.238,0.466,2.707,1.397
		c0.258,0.51,0.387,1.239,0.387,2.188v6.038h-1.608v-5.933c0-0.574-0.085-1.037-0.255-1.389c-0.281-0.586-0.791-0.879-1.529-0.879
		c-0.375,0-0.683,0.038-0.923,0.114c-0.434,0.129-0.814,0.387-1.143,0.773c-0.264,0.311-0.436,0.632-0.514,0.963
		c-0.08,0.331-0.119,0.804-0.119,1.419v4.931h-1.582V253.039z"/>
	<path d="M251.726,253.979c0.832,0.808,1.248,1.996,1.248,3.565c0,1.516-0.366,2.769-1.1,3.758s-1.871,1.484-3.412,1.484
		c-1.286,0-2.308-0.438-3.063-1.312c-0.757-0.875-1.135-2.051-1.135-3.526c0-1.58,0.398-2.839,1.195-3.775s1.868-1.405,3.212-1.405
		C249.875,252.767,250.894,253.171,251.726,253.979z M250.743,260.234c0.386-0.793,0.578-1.675,0.578-2.646
		c0-0.878-0.139-1.592-0.417-2.143c-0.44-0.865-1.199-1.299-2.277-1.299c-0.956,0-1.651,0.369-2.086,1.106s-0.651,1.627-0.651,2.668
		c0,1.001,0.217,1.835,0.651,2.502s1.124,1.001,2.069,1.001C249.646,261.424,250.358,261.027,250.743,260.234z"/>
	<path d="M255.654,250.165c0.369-0.539,1.081-0.809,2.136-0.809c0.1,0,0.202,0.003,0.308,0.009s0.226,0.015,0.36,0.026v1.441
		c-0.166-0.012-0.286-0.019-0.36-0.021s-0.144-0.005-0.208-0.005c-0.486,0-0.776,0.125-0.871,0.374s-0.143,0.883-0.143,1.902h1.582
		v1.248h-1.582v8.121h-1.564v-8.121h-1.31v-1.248h1.31v-1.477C255.335,250.95,255.449,250.47,255.654,250.165z"/>
	<path d="M266.271,258.286c0.039,0.732,0.206,1.327,0.499,1.784c0.56,0.855,1.544,1.283,2.955,1.283
		c0.632,0,1.208-0.094,1.728-0.281c1.005-0.363,1.507-1.014,1.507-1.951c0-0.703-0.213-1.204-0.639-1.503
		c-0.432-0.293-1.106-0.548-2.026-0.765l-1.694-0.396c-1.106-0.258-1.891-0.542-2.35-0.853c-0.795-0.539-1.192-1.345-1.192-2.417
		c0-1.16,0.391-2.112,1.172-2.856s1.887-1.116,3.318-1.116c1.317,0,2.437,0.327,3.357,0.98c0.92,0.653,1.381,1.697,1.381,3.133
		h-1.644c-0.084-0.691-0.264-1.222-0.539-1.591c-0.512-0.674-1.38-1.011-2.604-1.011c-0.989,0-1.7,0.217-2.133,0.65
		s-0.648,0.938-0.648,1.512c0,0.633,0.256,1.096,0.767,1.389c0.335,0.188,1.093,0.422,2.273,0.703l1.754,0.413
		c0.847,0.199,1.499,0.472,1.959,0.817c0.795,0.604,1.192,1.479,1.192,2.628c0,1.43-0.507,2.452-1.521,3.067
		s-2.192,0.923-3.536,0.923c-1.565,0-2.791-0.41-3.677-1.23c-0.886-0.814-1.32-1.919-1.303-3.313H266.271z"/>
	<path d="M276.968,253.039h1.503v1.626c0.123-0.316,0.425-0.701,0.905-1.156c0.48-0.453,1.034-0.681,1.661-0.681
		c0.029,0,0.079,0.003,0.149,0.009s0.19,0.018,0.36,0.035v1.67c-0.094-0.018-0.18-0.029-0.26-0.035
		c-0.078-0.006-0.165-0.009-0.259-0.009c-0.797,0-1.409,0.257-1.837,0.769c-0.428,0.514-0.642,1.104-0.642,1.771v5.414h-1.582
		V253.039z"/>
	<path d="M293.764,251.387c0.855,1.143,1.283,2.604,1.283,4.386c0,1.928-0.489,3.53-1.468,4.808c-1.148,1.5-2.786,2.25-4.913,2.25
		c-1.986,0-3.548-0.656-4.685-1.969c-1.014-1.266-1.521-2.865-1.521-4.799c0-1.746,0.434-3.24,1.301-4.482
		c1.113-1.594,2.76-2.391,4.939-2.391C290.98,249.189,292.668,249.922,293.764,251.387z M292.221,259.616
		c0.688-1.105,1.033-2.376,1.033-3.813c0-1.519-0.397-2.741-1.191-3.668s-1.879-1.39-3.256-1.39c-1.336,0-2.426,0.459-3.27,1.377
		s-1.266,2.271-1.266,4.06c0,1.431,0.361,2.637,1.086,3.619c0.723,0.982,1.896,1.474,3.52,1.474
		C290.418,261.274,291.532,260.722,292.221,259.616z"/>
</g>
<path style="fill:none;stroke:#000000;stroke-miterlimit:10;" d="M273.802,245.459"/>
<polygon style="fill:#FF0000;" points="80.349,208.309 80.349,214.608 86.648,214.608 86.648,208.309 80.349,208.309 "/>
<polygon style="fill:#FF0000;" points="80.349,183.408 80.349,189.709 86.648,189.709 86.648,183.408 80.349,183.408 "/>
<polygon style="fill:#FF0000;" points="80.349,158.509 80.349,164.809 86.648,164.809 86.648,158.509 80.349,158.509 "/>
<polygon style="fill:#FF0000;" points="80.349,133.608 80.349,139.908 86.648,139.908 86.648,133.608 80.349,133.608 "/>
<polygon style="fill:#FF0000;" points="80.449,108.708 80.449,115.009 86.749,115.009 86.749,108.708 80.449,108.708 "/>
<polygon style="fill:#FF0000;" points="80.949,83.858 80.949,90.159 87.249,90.159 87.249,83.858 80.949,83.858 "/>
<polygon style="fill:#FF0000;" points="82.199,58.958 82.199,65.259 88.499,65.259 88.499,58.958 82.199,58.958 "/>
<polygon style="fill:#FF0000;" points="84.449,34.059 84.449,40.358 90.749,40.358 90.749,34.059 84.449,34.059 "/>
<polygon style="fill:#FF0000;" points="88.749,9.159 88.749,15.458 95.048,15.458 95.048,9.159 88.749,9.159 "/>
<polygon style="fill:none;stroke:#00FF00;stroke-miterlimit:10;" points="359.448,207.931 356.299,213.033 362.599,213.033 
	359.448,207.931 "/>
<line style="fill:none;stroke:#00FF00;stroke-linecap:round;stroke-miterlimit:10;" x1="359.448" y1="211.459" x2="359.448" y2="211.459"/>
<polygon style="fill:none;stroke:#00FF00;stroke-miterlimit:10;" points="359.448,183.03 356.299,188.134 362.599,188.134 
	359.448,183.03 "/>
<line style="fill:none;stroke:#00FF00;stroke-linecap:round;stroke-miterlimit:10;" x1="359.448" y1="186.559" x2="359.448" y2="186.559"/>
<polygon style="fill:none;stroke:#00FF00;stroke-miterlimit:10;" points="359.448,158.131 356.299,163.233 362.599,163.233 
	359.448,158.131 "/>
<line style="fill:none;stroke:#00FF00;stroke-linecap:round;stroke-miterlimit:10;" x1="359.448" y1="161.658" x2="359.448" y2="161.658"/>
<polygon style="fill:none;stroke:#00FF00;stroke-miterlimit:10;" points="359.398,133.23 356.249,138.334 362.549,138.334 
	359.398,133.23 "/>
<line style="fill:none;stroke:#00FF00;stroke-linecap:round;stroke-miterlimit:10;" x1="359.398" y1="136.759" x2="359.398" y2="136.759"/>
<polygon style="fill:none;stroke:#00FF00;stroke-miterlimit:10;" points="359.099,108.331 355.948,113.434 362.249,113.434 
	359.099,108.331 "/>
<line style="fill:none;stroke:#00FF00;stroke-linecap:round;stroke-miterlimit:10;" x1="359.099" y1="111.858" x2="359.099" y2="111.858"/>
<polygon style="fill:none;stroke:#00FF00;stroke-miterlimit:10;" points="357.698,83.48 354.549,88.583 360.849,88.583 
	357.698,83.48 "/>
<line style="fill:none;stroke:#00FF00;stroke-linecap:round;stroke-miterlimit:10;" x1="357.698" y1="87.009" x2="357.698" y2="87.009"/>
<polygon style="fill:none;stroke:#00FF00;stroke-miterlimit:10;" points="354.749,58.581 351.599,63.684 357.898,63.684 
	354.749,58.581 "/>
<line style="fill:none;stroke:#00FF00;stroke-linecap:round;stroke-miterlimit:10;" x1="354.749" y1="62.108" x2="354.749" y2="62.108"/>
<polygon style="fill:none;stroke:#00FF00;stroke-miterlimit:10;" points="349.198,33.681 346.049,38.784 352.349,38.784 
	349.198,33.681 "/>
<line style="fill:none;stroke:#00FF00;stroke-linecap:round;stroke-miterlimit:10;" x1="349.198" y1="37.208" x2="349.198" y2="37.208"/>
<polygon style="fill:none;stroke:#00FF00;stroke-miterlimit:10;" points="343.799,8.781 340.648,13.884 346.948,13.884 
	343.799,8.781 "/>
<line style="fill:none;stroke:#00FF00;stroke-linecap:round;stroke-miterlimit:10;" x1="343.799" y1="12.309" x2="343.799" y2="12.309"/>
<polyline style="fill:none;stroke:#00FFFF;stroke-miterlimit:10;stroke-dasharray:3,1,0.5,1;" points="83.499,211.459 
	83.499,209.459 83.499,207.459 83.499,205.408 83.499,203.408 83.499,201.408 83.499,199.408 83.499,197.358 83.499,195.358 
	83.499,193.358 83.499,191.358 83.499,189.309 83.499,187.309 83.499,185.309 83.499,183.309 83.499,181.309 83.499,179.259 
	83.499,177.259 83.499,175.259 83.499,173.259 83.499,171.209 83.499,169.208 83.499,167.208 83.548,165.208 83.548,163.158 
	83.548,161.158 83.548,159.158 83.548,157.158 83.548,155.108 83.548,153.108 83.548,151.108 83.599,149.108 83.599,147.108 
	83.599,145.059 83.599,143.059 83.648,141.059 83.648,139.059 83.648,137.009 83.699,135.009 83.699,133.009 83.699,131.009 
	83.749,128.958 83.749,126.958 83.798,124.958 83.849,122.958 83.849,120.958 83.898,118.909 83.948,116.909 83.948,114.909 
	83.999,112.909 84.048,110.858 84.099,108.858 84.148,106.858 84.198,104.858 84.249,102.809 84.298,100.809 84.349,98.809 
	84.398,96.809 84.499,94.809 84.548,92.759 84.648,90.759 84.698,88.759 84.798,86.759 84.849,84.708 84.948,82.708 85.048,80.708 
	85.148,78.708 85.249,76.659 85.349,74.659 85.448,72.659 85.599,70.659 85.698,68.659 85.849,66.608 85.948,64.608 86.099,62.608 
	86.249,60.608 86.398,58.559 86.548,56.559 86.698,54.559 86.849,52.559 87.048,50.509 87.198,48.509 87.398,46.509 87.599,44.509 
	87.798,42.458 87.999,40.458 88.249,38.458 88.448,36.458 88.698,34.458 88.948,32.409 89.198,30.409 89.448,28.409 89.698,26.409 
	89.999,24.358 90.298,22.358 90.599,20.358 90.898,18.358 91.198,16.309 91.548,14.309 91.898,12.309 "/>
<polyline style="fill:none;stroke:#FF4D00;stroke-miterlimit:10;stroke-dasharray:0.5,1,3,1,0.5,1;" points="359.448,211.459 
	359.448,209.459 359.448,207.459 359.448,205.408 359.448,203.408 359.448,201.408 359.448,199.408 359.448,197.358 
	359.448,195.358 359.448,193.358 359.448,191.358 359.448,189.309 359.448,187.309 359.448,185.309 359.448,183.309 
	359.448,181.309 359.448,179.259 359.398,177.259 359.398,175.259 359.398,173.259 359.398,171.209 359.398,169.208 
	359.398,167.208 359.349,165.208 359.349,163.158 359.349,161.158 359.349,159.158 359.299,157.158 359.299,155.108 
	359.249,153.108 359.249,151.108 359.198,149.108 359.198,147.108 359.148,145.059 359.099,143.059 359.099,141.059 
	359.049,139.059 358.999,137.009 358.948,135.009 358.898,133.009 358.849,131.009 358.748,128.958 358.698,126.958 
	358.648,124.958 358.549,122.958 358.498,120.958 358.398,118.909 358.299,116.909 358.198,114.909 358.099,112.909 
	357.999,110.858 357.898,108.858 357.799,106.858 357.648,104.858 357.549,102.809 357.398,100.809 357.249,98.809 357.099,96.809 
	356.948,94.809 356.799,92.759 356.599,90.759 356.448,88.759 356.249,86.759 356.049,84.708 355.849,82.708 355.648,80.708 
	355.448,78.708 355.198,76.659 354.948,74.659 354.698,72.659 354.448,70.659 354.198,68.659 353.948,66.608 353.648,64.608 
	353.349,62.608 353.099,60.608 352.749,58.559 352.448,56.559 352.148,54.559 351.799,52.559 351.448,50.509 351.099,48.509 
	350.749,46.509 350.398,44.509 350.049,42.458 349.648,40.458 349.249,38.458 348.898,36.458 348.499,34.458 348.049,32.409 
	347.648,30.409 347.249,28.409 346.799,26.409 346.398,24.358 345.948,22.358 345.549,20.358 345.099,18.358 344.648,16.309 
	344.198,14.309 343.799,12.309 "/>
<polygon style="fill:none;stroke:#000000;stroke-miterlimit:10;" points="83.499,12.309 83.499,211.459 359.448,211.459 
	359.448,12.309 83.499,12.309 "/>
</svg>
